<?xml version="1.0" encoding="UTF-8"?>
<svg width="235.41mm" height="124.34mm" enable-background="new 0 0 290 201" version="1.1" viewBox="0 0 889.74 469.95" xml:space="preserve" xmlns="http://www.w3.org/2000/svg" xmlns:cc="http://creativecommons.org/ns#" xmlns:dc="http://purl.org/dc/elements/1.1/" xmlns:rdf="http://www.w3.org/1999/02/22-rdf-syntax-ns#"><metadata><rdf:RDF><cc:Work rdf:about=""><dc:format>image/svg+xml</dc:format><dc:type rdf:resource="http://purl.org/dc/dcmitype/StillImage"/></cc:Work></rdf:RDF></metadata>


<g transform="translate(9200.6 9120.9)">
	
	
	
<g><g transform="translate(-11.355 211.01)"><g transform="matrix(1.1051 0 0 1.1011 -10226 -9852)" stroke-width=".91456"><path d="m1781.8 181.87c13.844-28.921 75.875-14.582 88.328-.38617 0 0-4.3517 4.0236-6.5662 8.3894-.9933 1.9582-.3588 4.0545-.2454 5.9087.7228 11.82-39.849 3.5587-39.849 3.5587-4.525-1.3316-21.752-3.0255-41.668-17.471z" color="#000000" enable-background="accumulate" fill="#74414f"/><path d="m1741.2 36.508c-14.578.42945-29.281 3.294-42.37 9.9015-11.957 6.0993-22.191 15.132-30.943 25.222-9.5636 11.104-17.499 23.659-23.1 37.213-1.5622 3.8599-2.9641 7.8088-3.9304 11.857.1096 4.5098.7485 8.9845 1.1629 13.472 1.4321 13.472 3.2636 27.007 7.4006 39.952 2.5853 7.9756 6.2837 15.85 12.328 21.804 2.742 2.675 5.8638 4.9855 9.2343 6.7941 7.1916 1.8322 14.808.52909 21.643-2.0632 10.204-3.8556 19.329-9.9706 28.294-16.077 5.3474-3.6807 10.638-7.3695 15.995-11.019-4.3342-5.6892-8.6679-11.379-13.002-17.068 8.9372 2.4715 17.802 5.9814 25.065 11.875 1.1775.96314 2.2729 1.9786 3.2779 3.0183 2.7489 2.7859 4.903 6.0934 6.6312 9.5922.3595.36502.3985 1.5363 1.0545 1.155 41.337-14.128 89.819-21.309 131.16-35.435-3.2126-2.3812-12.271-9.357-14.987-12.335-2.8013-1.5789-10.976-10.795-17.566-14.686.1646-3.8488-.7829-7.6195-1.8437-11.286-.8229-2.9744-1.4467-6.0234-1.4903-9.1181-.5886-6.5243-4.0024-12.401-8.039-17.408-4.5959-5.6632-10.074-10.536-15.707-15.139-15.807-12.681-34.402-21.949-54.145-26.595-11.821-2.7152-23.997-3.9385-36.121-3.625z" fill="#000000"/><path d="m1839.4 78.624c-18.28-18.197-43.007-31.441-68.346-36.117-24.444-4.5108-52.47-3.4092-74.023 9.0137-25.116 14.476-46.107 45.463-52.508 69.477-.1191.71595.9519 11.217 1.2248 13.414 2.4032 19.355 94.111 1.6342 115.62 43.421 19.072-10.691 93.41-55.821 93.41-55.821.9547-8.481-1.9021-10.714-3.0766-20.405.2937-8.5482-6.145-16.86-12.297-22.984z" fill="#b4b4b4"/><path d="m1805.2 175.57c.4691-3.5968 3.2272-5.3624 6.2934-6.8815.8047 5.5307 2.2659 7.7793 3.5642 10.842 2.3477-3.9107 4.0394-4.5412 5.8935-5.9836l2.6271 9.5637 5.4739-5.5248 4.2857 7.2894 6.0974-11.273c2.4237 4.0029 3.5304 11.298 2.7956 23.197 2.4912-4.6673 4.9825-8.4916 7.4737-10.014l.8312 8.7638 2.8626-7.5639 1.8114 3.8349 4.2544-3.2702.996 2.5958 2.039-3.6114c.4949 1.5944 1.4246 2.3192-.086 7.9246 0 0-3.0023.1732-4.4799.43273-1.7365.305-3.373 1.5308-5.1229 1.316-.8481-.10414-2.2547-1.2195-2.2547-1.2195s-1.1398 1.7495-2.0522 2.111c-1.9074.75584-4.1209.0341-6.149-.27673-3.4806-.53345-7.6554-.28488-10.211-2.7074-1.4593-1.3834-.701-4.0934-1.855-5.7401-1.6908-2.4127-4.3019-4.1918-6.9776-5.425-2.7843-1.2832-6.2001-.62386-9.0088-1.8528-3.4203-1.4966-9.1021-6.5268-9.1021-6.5268z" color="#000000" enable-background="accumulate" fill="#ffffe1" stroke="#bebebe" stroke-width=".91456px"/><path d="m1812.8 167.31 2.1683 9.1441c2.9814-1.6769 4.9211-4.3955 5.7955-8.1794.682 2.4874 2.3166 4.4986 5.1052 5.9327l2.1567-.97634c.5183 7.3606 1.4198 12.04 2.4622 15.732 3.4571-2.583 6.1615-8.1768 8.0385-17.08l9.3205 1.7842-2.6626 9.3597c3.2063-.0357 6.8457-2.2369 11.105-7.5363 0 0-1.1748 7.2067-1.768 10.809-.3314 2.0124-1.0005 6.036-1.0005 6.036s3.6699-1.1988 5.2063-2.3153c2.5723-1.8693 4.7537-4.3599 6.3783-7.0934 1.179-1.9838 2.3093-6.5264 2.3093-6.5264l-26.566-13.582z" color="#000000" enable-background="accumulate" fill="#fff5d9" stroke="#bebebe" stroke-width=".91456px"/><path transform="translate(-1217.7)" d="m2979.2 84.406c-3.5741.0085-7.1305.08084-10.688.1875-11.307.33904-33.438 5.75-33.438 5.75s-19.314-6.6031-26.812-1.7188c-1.5431 1.0052-2.7578 2.3518-3.75 3.9062-8.5633 23.947-5.2074 43.953 7.3176 61.517 8.8347 12.389 34.266 31.465 58.402 36.81 21.041 4.6596 42.982 5.8177 56.677 14.179 11.348 6.9288 23.461 15.633 28.281 19.85 6.9166 6.0529 6.2478 5.2821 9.7916 1.519v-.0312c3.1754-2.8359 4.4463-7.3839 7.0313-10.812 3.3459-4.4378 9.8072-7.2782 10.781-12.75 1.0923-2.2241-.7278-5.2388-.7278-5.2388s-10.477 2.9113-15.304 3.0201c-.535.0121-21.661-2.3502-22.262-2.3704l-2.7074-9.848-18.455-5.5237-18.314-1.9717 10.921-10.268 17.101-4.7336 25.298 2.0812c20.787 9.4727 29.401 10.321 29.401 10.321 3.0326-.14655 5.4725-1.8547 6.4225-8.2488 0 0 2.467-2.0694 3.375-3.375 4.141-5.9544 9.0624-19.75 9.0624-19.75l-10.187-4.8438c-3.0498-1.4128-11.67-11.447-24.018-20.051-2.2249-6.278-7.3558-7.9048-8.9516-18.298-1e-4 0-4.1737-7.9121-10.062-9.6828-23.855-7.174-49.169-9.6846-74.188-9.625z" color="#000000" enable-background="accumulate" fill="#282828"/><path d="m1777.6 117.1s2.8257.89279 4.2775 1.1716c9.2718 1.7806 19.196.16362 28.146 3.1691 3.5878 1.2048 6.0214 5.2262 9.7628 5.7968 2.2343.34072 6.597-1.5666 6.597-1.5666s-8.3577 5.236-12.829 7.2817c-5.0768 2.3226-10.211 6.0139-15.779 5.6152-7.2877-.52169-15.403-4.0944-19.393-10.215-2.0531-3.1498-.7816-11.253-.7816-11.253z" color="#000000" enable-background="accumulate" fill="#b4b4b4"/><path d="m1859.7 144.62c-1.2482.87018-2.9511 3.4826-2.9511 3.4826s2.8747 7.6126 5.7404 10.305c2.215 2.0809 8.2262 3.9316 8.2262 3.9316s2.9136 4.9394 4.942 6.9189c.563.54939 1.9532 1.3243 1.9532 1.3243s3.9004-3.1591 5.3113-5.1942c3.8793-5.5954 8.2523-18.685 8.2523-18.685l-14.952-8.1101s-11.713 2.6742-16.522 6.0267z" fill="#000000"/><path d="m1694.7 105.71c2.5886-6.6954 12.527-.95185 20.215.3662 0 0-7.7585 2.6769-9.1756 6.0565-3.0461 7.265 4.5405 23.193 4.5405 23.193-4.525-1.3316-13.089-1.5627-15.58-29.616z" color="#000000" enable-background="accumulate" fill="#74414f"/><path d="m1788.5 121.75s5.2336 7.0834 9.0342 8.9726c2.9877 1.4851 9.9106 1.4029 9.9106 1.4029s.3763-4.9581-1.1646-6.5552c-4.209-4.3626-17.78-3.8203-17.78-3.8203z" fill="#000000"/><path d="m1839.2 129.44c-13.891.64489-22.803 11.327-35.047 16.348-8.0753 3.3115-23.453 12.464-23.453 12.464s3.1649-.71212 4.6783-1.281c5.8117-2.1845 9.1007-5.5054 16.757-8.1321 12.731-4.3678 24.447-15.806 37.221-16.399 4.1531-.19281 8.7175 1.0246 11.938 3.5 2.2559 2.4002 3.4956 4.91 4.75 7.9375 0 0 .9083-1.9272.806-2.9374-.2778-2.7429-1.0205-5.2095-3.7435-7.3751-3.9074-3.0039-9.079-4.3491-13.906-4.125z" color="#000000" enable-background="accumulate" fill="#000000" style="text-decoration-line:none;text-indent:0;text-transform:none"/><path d="m1840.3 107.68c-.4078-1.139-2.442-2.6851-2.442-2.6851-.01 3.6088.9342 7.7402-.75 11.312-2.7852 3.8075-6.0727 6.1188-10.062 8.5625 0 0 3.308.42164 4.7922-.17168 3.29-1.3152 5.7118-2.7835 7.9578-7.0471 1.6223-4.3581 1.626-6.8379.5045-9.9712z" color="#000000" enable-background="accumulate" fill="#000000" style="text-decoration-line:none;text-indent:0;text-transform:none"/><path d="m1678.9 103.31c-12.188 5.3987-22.352 19.601-33.136 31.106 4.8936 47.882 15.275 58.167 26.462 64.861 18.032 4.3966 39.739-13.106 59.567-26.543z" fill="#282828" fill-rule="evenodd"/><path d="m1766.8 80.777c-16.468-.02845-35.09 2.1753-49.084 5.6217-.9343-.31006-9.7948-3.2898-14.894-3.7477-5.4961-.49352-12.165-2.2778-16.517 1.115-6.831 5.3254-8.2074 16.056-8.0222 24.715.4006 18.734 8.2155 37.814 19.626 52.678 8.956 11.667 22.53 19.573 35.962 25.567 16.573 7.3955 36.779 6.5335 53.115 11.956 17.504 7.9632 36.672 12.692 42.907 29.486 2.4944-1.341 4.6869-3.5512 6.7099-2.3225 1.9788 1.2019 1.071 4.4195 1.01 6.8719l-.125 4.1562 3.75-1.875s1.9924-1.0073 4.25-2.2188 4.6032-2.4773 6.0625-3.625c1.2399-6.4273 3.0711-11.362 6.1847-13.061 5.9047-6.76 8.5798-12.723 8.2593-16.379l-2.1161-.19922c-1.9126 4.4877-3.4142 9.0152-8.878 13.159-3.3783 3.3825-5.2647 7.7598-6.5436 12.542-1.9876 1.299-4.2936 2.6061-6 3.5-.2127-7.3632-1.5444-12.675-3.2813-19.688-1.8756 3.569-3.0321 8.2519-6.6875 9.7812-10.048-16.457-34.709-22.195-50.031-27.25-17.889-5.9385-36.593-2.833-52.688-10.719-12.019-5.889-23.107-14.989-30.437-26.188-8.6024-13.142-14.14-29.327-13.875-45.031.1124-6.6666 1.4249-14.619 6.5312-18.906 2.8733-2.4125 7.3687-1.9997 11.114-1.7789 4.9112.28954 10.664 2.7438 14.198 4.0289 10.774-2.9343 31.096-6.6141 46.891-6.8627 24.036-.37818 44.745.10216 71.649 8.1932 0 0-13.998-6.1237-21.388-7.8978-15.552-3.7336-31.658-5.5969-47.652-5.6245zm54.946 83.349c-8.2366.027-18.478 1.2315-26.041 5.1324-5.6454 3.4853-7.7381 10.117-13.916 12.615 11.361.43646 20.944 1.5956 31.272 4.2934 9.5179 3.6232 12.816 6.0812 10.395 13.177 8.6821 1.3914 20.663 3.679 29.042 3.6183 9.3106.005 13.496-3.2455 13.496-3.2455-.023-.17698-5.3438-6.03-1.2998-9.7036 3.0935-2.8101 7.0822-6.6714 8.297-10.297 3.2989-2.6396 4.7736-6.1693 4.5689-9.1329l-1.1898-.85137c-.3897 2.2433-.4764 4.2655-3.6833 7.6629-.4297.846-4.6276 2.043-4.6276 2.043s-4.9944 8.0907-5.2312 7.784c-.6124-.79327.4848 7.8236-.8369 7.6383 0 0-2.1212 2.5639-8.0376 3.2775-9.7571 1.1768-20.836-1.9194-24.216-2.6064.2328-1.2283.5095-2.6678-.625-4.4375-2.7806-4.3375-11.187-6.1968-15.793-7.4299-8.6772-1.8462-15.432-3.4726-24.486-3.0717 2.5522-.27346 9.2594-7.053 11.435-8.2428 8.5768-4.4238 16.411-4.8147 26.867-4.4722 7.2281.23675 16.39 2.4359 24.867 6.8035 13.776 7.0977 19.391 4.2569 19.391 4.2569l1.2933-1.5426s-5.5624 2.6733-21.635-6.446c-3.9709-2.5533-17.408-6.8483-29.306-6.8234z" color="#000000" enable-background="accumulate" fill="#000000" style="text-decoration-line:none;text-indent:0;text-transform:none"/><path d="m1695.8 116.58c.4834-3.4373-1.5891-8.7427 2.3662-11.52 5.9125-1.8085 7.8318-.21227 11.5 1.1562-2.6283 1.4185-4.0222 2.4217-5.2053 4.3482-1.0054 1.6371-1.4168 3.699-1.2947 5.6163.3043 4.7794 4.977 13.478 4.977 13.478s-4.5568-11.157-2.0259-15.84c2.4968-4.6195 7.656-6.7617 14.167-6.8884-7.0351-4.2703-17.066-10.136-24.067-5.2522-3.9856 2.4054-2.5786 11.501-.4176 14.902z" color="#000000" enable-background="accumulate" fill="#000000" style="text-decoration-line:none;text-indent:0;text-transform:none"/><path d="m1805.2 175.57c.4691-3.5968 3.2272-5.3624 6.2934-6.8815.8047 5.5307 2.2659 7.7793 3.5642 10.842 2.3477-3.9107 4.0394-4.5412 5.8935-5.9836l2.6271 9.5637 4.6838-5.0859m10.778-5.0153c2.4237 4.0029 3.9255 11.891 3.1907 23.79 2.4912-4.6673 4.9825-8.4916 7.4737-10.014l.8312 8.7638 3.8626-10.564m5.0658 3.5647.996 2.5958 2.039-3.6114c.4949 1.5944 1.3623 2.9975-.1483 8.6029" color="#000000" enable-background="accumulate" fill="none" stroke="#000000" stroke-width="1.8291"/><path d="m1812.8 167.31 2.1683 9.1441c2.9814-1.6769 5.0049-4.8064 5.8793-8.5903.682 2.4874 2.2328 4.9094 5.0214 6.3436l2.1567-.97634c.5183 7.3606 1.4198 12.04 2.4622 15.732 3.4571-2.583 6.1615-8.1768 8.0385-17.08l9.3205 1.7842-2.6626 9.3597c3.2063-.0357 6.5823-1.2493 10.49-6.0219 0 0-.9145 5.9583-1.3291 8.9436-.2953 2.1263-.8249 6.3872-.8249 6.3872s3.3952-1.0744 4.8551-2.052c2.7933-1.8702 5.298-4.3002 7.1685-7.0934.9564-1.4283 1.9581-4.7706 1.9581-4.7706" color="#000000" enable-background="accumulate" fill="none" stroke="#000000" stroke-width="1.8291"/><path transform="translate(-1217.7)" d="m3086.2 180.52c-1.2975 2.6916-3.3403 6.1785-6.0576 8.428 3.1763-1.8571 5.6306-4.4362 7.6378-7.4623z" color="#000000" enable-background="accumulate" fill="#fff5d9"/><path d="m1681 97.327c-15.262 9.0949-24.417 21.129-35.746 32.469.1883 3.2223.6502 6.3695 1.0222 9.5244 11.543-12.057 21.767-29.988 36.564-33.946z" fill="#000000" fill-rule="evenodd"/></g><g transform="matrix(1.3686 0 0 1.3496 -11957 -10145)"><path d="m2666.3 214.58-6.0938 7.9688c-5.5576 1.735-5.9435 1.0291-8.2187 2.5l-8.2187-7.3125-.1876-.5c-.1219-.31716-.4295-.53851-.75-.5625-.5459-.0365-1.0528.58374-.9374 1.1562l6.7187 34.438c.01.0331-.01.0927 0 .125 2.1519 7.7741 3.8889 15.072 13.812 20.688 9.9236 5.6159 22.691 8.3423 30.469 9.3125 7.7779.97023 20.844 1.4434 31.844-1.5625 10.999-3.0059 16.31-10.017 18.469-16.656.016-.0291.018-.063.031-.0937l14.969-31.75c.1843-.4159.047-.94805-.3124-1.1875-.359-.23946-.885-.13916-1.1563.21875l-1.5 2.125.75-2.125-9.3437 5.5c-1.8441-1.9848-2.3827-1.3904-7.3438-4.4375l-3.9688-9.2188-9.1562 4.4062c-5.5624-1.8368-11.081-3.7232-17.625-4.3125l-7.3438-7.5312-8.9687 5.5c-6.4884-1.0364-12.313-.57033-18.156-.15625zm8.1875 28.656c-.1432.085-1.4063.84375-1.4063.84375l-1.9687-.75c1.0825-.0584 2.2147-.0804 3.375-.0937zm46.406 6.25c.581.16994 1.1599.32479 1.7187.5l-1.0625.125z" color="#000000" enable-background="accumulate" fill="#000000" stroke="#000000" stroke-linecap="round" stroke-linejoin="round" stroke-width="4.4538"/><g transform="matrix(.31384 .03915 -.03915 .31384 2810.7 -170.01)" stroke-width=".7423"><path d="m-59.423 1375.8c-8.6528-19.085-66.463-29.904-133-29.904-67.87 0-120.13 6.6033-133 29.904l-8.6 5.6099-22.4-36.036-17.162-64.723 30.324 20.938c6.5627-5.5054 8.0802-3.4679 24.838-11.086l16-27.359 27 17.41c18.171-3.586 36.237-7.3446 57-6.6324l26-20.726 26 20.726c20.763-.7122 38.829 3.0464 57 6.6324l27-17.41 16 27.359c16.758 7.6186 18.276 5.5811 24.838 11.086l27.162-20.938-14 64.723-22.4 36.036z" color="#000000" enable-background="accumulate" fill="#000000"/><path d="m-375.25 1278.8c-1.7272.099-3.0578 2.2571-2.4716 4.0082l34.533 105.49c.0298.1018.0647.2019.10438.2997 9.7942 23.549 18.028 45.772 51.361 59.508 33.333 13.736 74.519 17.366 99.302 17.366s65.969-3.6303 99.302-17.366c33.333-13.736 47.187-37.833 51.361-59.508.0397-.098.0746-.1979.10438-.2997l34.533-105.49c.41573-1.3771-.2539-3.0323-1.4738-3.643-1.2199-.6108-2.8278-.096-3.539 1.1332l-16.779 31.578c-18.576 17.288-21.426 20.134-47.064 31.698l-39.232 9.3871-77.211-58.76c-.82547-.496-77.211 58.76-77.211 58.76l-39.232-9.3871c-27.792-11.653-29.931-12.745-47.064-31.698l-16.779-31.578c-.50685-.9474-1.5264-1.5485-2.5412-1.4984z" color="#000000" enable-background="accumulate" fill="#f3d400" style="text-decoration-line:none;text-indent:0;text-transform:none"/></g></g></g></g><g transform="matrix(1.76 0 0 1.76 -9965.1 -10246)" stroke="#000000"><path d="m793.42 730.61-29.75.079s-.0284-22.922-.0395-28.421c-.0111-5.5 4.9787-10.51 10.479-10.521 5.5-.0121 19.296-.0577 19.296-.0577l.0142 7s-8.7965.0364-17.796.0547c-2.719.006-4.9959 2.0101-4.9899 5.0101.007 3.667.0223 19.921.0223 19.921l22.764-.0749z" fill="#ffffff" stroke-width=".85226"/><path transform="matrix(.56817 0 0 .56817 343.07 523.21)" d="m815.54 296.49c-.009 22.834-.0254 45.668-.0254 68.502l52.361.13868s.0488-40.343.0684-50.021c.0195-9.6802-8.7612-18.498-18.441-18.518-9.6802-.0213-33.963-.10156-33.963-.10156zm12.627 12.357s10.97.0429 18.67.0586c4.7855.0106 8.7939 3.5382 8.7832 8.8184-.0123 6.454-.041 35.062-.041 35.062l-27.412-.0918z" fill="#ffffff" stroke-width="1.5"/><path d="m849.17 730.68v-39h19.5c5.5 0 10.5 5 10.5 10.5.001 5.5 0 28.5 0 28.5h-7v-27c0-2.719-2-5-5-5h-11v37z" fill="#ffffff" stroke-width=".85226"/><g transform="translate(-253.62 79.072)" stroke-width=".85226"><path transform="translate(786.14 574.04)" d="m385.48 30.012s-9.8965.04454-15.396.05664c-5.4999.01114-10.49 5.0215-10.479 10.521.003 1.4143.0283 2.5196.043 3.7773v33.201l7 5v-26.565h14.533v-7l-14.533.02148-.041-6.9486c-.006-3 2.2712-5.0038 4.9902-5.0098 9-.0183 13.883-.05469 13.883-.05469z" fill="#ffffff" stroke="#000000" stroke-width=".85226"/></g></g><g transform="translate(-213.28 -159.33)" fill="#ffffff" stroke="#000000" stroke-width="1.5"><path d="m-8948.7-8800.3v-68.641h34.321c9.6802 0 18.48 8.8002 18.48 18.48v50.161h-12.32v-47.521c0-4.7855-3.52-8.8002-8.8001-8.8002h-19.36v65.121z"/><path d="m-8873.1-8800.3v-68.641h12.32v68.641z"/><path d="m-8873.1-8884.8h12.32v-14.08l-12.32 8.8002z"/><path d="m-8825.5-8800.3h-12.32v-68.641h67.761c10.56 0 18.48 7.9202 18.48 18.48v50.161l-12.32 8.8002v-56.321c0-5.2801-3.52-8.8002-8.8001-8.8002h-15.84v56.321h-12.32v-56.321h-24.64z"/></g><rect x="-8860.7" y="-8869" width="19.697" height="8.6745" opacity="0" stroke-width=".62362" style="paint-order:normal"/><g transform="matrix(2.5892 0 0 2.5892 13280 14096)" stroke="#000000" stroke-width=".57934"><g stroke="#000000" stroke-width=".57934"><path d="m-8639.5-8869.1v10.16s19.402.035 25.733.048c3.9344.01 7.2297 2.9082 7.2209 7.2493l-.031 10.019-17.816-.031c-7.9586.016-15.179 7.2662-15.163 15.225l.057 26.086h43.029v-10.208l-32.92.028c0-.4024-.021-8.5783-.031-13.758-.01-4.3411 3.2866-7.2405 7.221-7.2492 6.3308-.012 25.73-.048 25.73-.048l.057-22.214c.016-7.9586-7.204-15.206-15.163-15.222-7.9585-.018-27.923-.085-27.923-.085z" fill="#ffffff" stroke="#000000" stroke-width=".57934"/><g transform="translate(.027794 -1.651)" fill="#ffffff" stroke="#000000"><path transform="matrix(.38622 0 0 .38622 -8744.8 -9044.2)" d="m431.72 458.13c-.0179 59.242-.0547 118.48-.0547 177.72h111.46s.10701-117.78.14843-138.39c.0414-20.606-18.654-39.081-39.26-39.123-20.606-.0466-72.295-.21484-72.295-.21484zm26.877 26.307s23.353.0913 39.744.125c10.187.0259 18.716 7.5299 18.693 18.77-.0285 13.739-.082 106.84-.082 106.84l-58.355-.39649z" stroke-width="1.5"/><path d="m-8562.6-8838h12.32v14.08l-12.32-8.8002z" stroke-width=".57934"/></g><path d="m-8515.8-8869.1v10.16s19.402.035 25.733.048c3.9344.01 7.2297 2.9082 7.2209 7.2493l-.031 10.019-17.816-.031c-7.9586.016-15.179 7.2662-15.163 15.225l.057 26.086h43.029v-10.208l-32.92.028c0-.4024-.021-8.5783-.031-13.758-.01-4.3411 3.2866-7.2405 7.221-7.2492 6.3308-.012 25.73-.048 25.73-.048l.057-22.214c.016-7.9586-7.204-15.206-15.163-15.222-7.9585-.018-27.923-.085-27.923-.085z" fill="#ffffff" stroke="#000000" stroke-width=".57934"/><g transform="translate(123.95 -1.6513)" stroke="#000000" stroke-width=".57934"><path d="m-8578-8839.5c-.01 22.88-.021 17.953-.021 40.833h43.049s.041-17.683.057-25.64c.016-7.9586-7.2044-15.094-15.163-15.11-7.9586-.018-17.763-.081-17.763-.081l-.031-10.08c-.01-4.3411 3.2865-7.2393 7.2209-7.2493 6.3309-.013 25.733-.048 25.733-.048v-10.16l-1.5449-1e-4s-18.42.067-26.378.085c-7.9586.016-15.179 7.2633-15.163 15.222zm10.38 10.16s9.0193.035 15.35.048c3.9344.01 7.2286 2.9082 7.2198 7.2492-.011 5.3062-.032 13.455-.032 13.455l-22.538-.1531z" fill="#ffffff" stroke="#000000" stroke-width=".57934"/></g><text x="-8620.2568" y="-8695.3857" fill="#000000" fill-rule="evenodd" font-family="'Nimbus Roman'" font-size="74.155px" stroke-linecap="square" stroke-width=".41165" text-align="center" text-anchor="middle" xml:space="preserve"><tspan x="-8620.2568" y="-8695.3857" stroke-width=".41165"/></text></g></g><g transform="matrix(2.5436 0 0 2.5436 -10595 -10600)" stroke="#000000" stroke-width=".58971"><path d="m709.69 596.61s-3.41 2.695-6.887 5.372c-3.577-.114-10.591.687-14.392 2.069-3.501-2.218-6.578-4.667-6.578-4.667s-2.629 4.523-4.282 7.177c-2.452 1.304-4.914 2.771-7.108 4.711-2.552-1.013-5.51-2.249-5.606-2.29 3.379 6.816 5.651 13.642 11.832 17.745 9.839-15.539 55.56-14.107 65.602-.088 6.49-3.385 9.014-10.668 11.566-17.392-.28.092-3.752 1.255-6.004 2.114-1.344-1.463-4.512-3.713-6.313-4.799-1.708-3.128-4.194-7.354-4.194-7.354s-2.945 2.19-6.357 4.579c-4.61-.851-10.187-1.885-14.877-1.629-3.193-2.625-6.402-5.548-6.402-5.548z" fill="#f3d400"/><path d="m668.33 623.47s4.79 11.598 8.117 19.657c14.096 18.597 50.092 19.89 65.785.36 3.713-8.369 8.723-20.13 8.723-20.13-4.026 5.964-10.578 10.081-14.613 12.299-2.868 1.571-9.483 2.521-9.483 2.521l-17.37-9.001-17.47 8.821s-6.528-1.049-9.483-2.43c-5.964-3.185-9.976-6.947-14.206-12.097z" fill="#ffe953"/></g><text x="-9100.6914" y="-8508.9033" fill="#000000" fill-rule="evenodd" font-family="'Nimbus Roman'" font-size="192px" stroke-linecap="square" stroke-width="1.0658" text-align="center" text-anchor="middle" xml:space="preserve"><tspan x="-9100.6914" y="-8508.9033" font-size="192px"/></text></g>
</svg>
